<svg width="12" height="12" viewBox="0 0 12 12" fill="none" xmlns="http://www.w3.org/2000/svg">
<path fill-rule="evenodd" clip-rule="evenodd" d="M0.3125 5.79999C0.3125 2.65887 2.85888 0.112488 6 0.112488C9.14112 0.112488 11.6875 2.65887 11.6875 5.79999C11.6875 8.94111 9.14112 11.4875 6 11.4875C2.85888 11.4875 0.3125 8.94111 0.3125 5.79999ZM5.39114 4.95908C6.05978 4.62476 6.81264 5.22869 6.63133 5.95393L6.21774 7.60828L6.24194 7.59618C6.45805 7.48813 6.72085 7.57572 6.82891 7.79184C6.93697 8.00795 6.84937 8.27075 6.63325 8.37881L6.60905 8.39091C5.94041 8.72523 5.18755 8.12131 5.36886 7.39607L5.78245 5.74171L5.75825 5.75381C5.54214 5.86187 5.27934 5.77427 5.17128 5.55815C5.06323 5.34204 5.15082 5.07924 5.36694 4.97118L5.39114 4.95908ZM6 4.04999C6.24162 4.04999 6.4375 3.85411 6.4375 3.61249C6.4375 3.37086 6.24162 3.17499 6 3.17499C5.75838 3.17499 5.5625 3.37086 5.5625 3.61249C5.5625 3.85411 5.75838 4.04999 6 4.04999Z" fill="white" fill-opacity="0.5"/>
</svg>
